<?xml version="1.0" encoding="UTF-8" standalone="no"?>
<!DOCTYPE svg PUBLIC "-//W3C//DTD SVG 1.1//EN"
 "http://www.w3.org/Graphics/SVG/1.1/DTD/svg11.dtd">
<!-- Generated by graphviz version 2.38.0 (20140413.2041)
 -->
<!-- Title: G Pages: 1 -->
<svg width="138pt" height="312pt"
 viewBox="0.00 0.00 138.00 312.00" xmlns="http://www.w3.org/2000/svg" xmlns:xlink="http://www.w3.org/1999/xlink">
<g id="graph0" class="graph" transform="scale(1 1) rotate(0) translate(4 308)">
<title>G</title>
<polygon fill="white" stroke="none" points="-4,4 -4,-308 134,-308 134,4 -4,4"/>
<g id="clust1" class="cluster"><title>cluster_Global</title>
<path fill="none" stroke="gray" d="M20,-8C20,-8 110,-8 110,-8 116,-8 122,-14 122,-20 122,-20 122,-284 122,-284 122,-290 116,-296 110,-296 110,-296 20,-296 20,-296 14,-296 8,-290 8,-284 8,-284 8,-20 8,-20 8,-14 14,-8 20,-8"/>
<text text-anchor="middle" x="65" y="-283.2" font-family="Times,serif" font-size="11.00" fill="gray">Global</text>
</g>
<!-- \\CRemoteImage -->
<g id="node1" class="node"><title>\\CRemoteImage</title>
<polygon fill="none" stroke="black" points="114,-268 16,-268 16,-232 114,-232 114,-268"/>
<text text-anchor="middle" x="65" y="-247.2" font-family="Courier,monospace" font-size="11.00">CRemoteImage</text>
</g>
<!-- \\CImage -->
<g id="node2" class="node"><title>\\CImage</title>
<polygon fill="none" stroke="black" points="93.5,-214 36.5,-214 36.5,-178 93.5,-178 93.5,-214"/>
<text text-anchor="middle" x="65" y="-193.2" font-family="Courier,monospace" font-size="11.00">CImage</text>
</g>
<!-- \\CAsciiArt -->
<g id="node3" class="node"><title>\\CAsciiArt</title>
<polygon fill="none" stroke="black" points="103.5,-160 26.5,-160 26.5,-124 103.5,-124 103.5,-160"/>
<text text-anchor="middle" x="65" y="-139.2" font-family="Courier,monospace" font-size="11.00">CAsciiArt</text>
</g>
<!-- \\CHttpGet -->
<g id="node4" class="node"><title>\\CHttpGet</title>
<polygon fill="none" stroke="black" points="100.5,-106 29.5,-106 29.5,-70 100.5,-70 100.5,-106"/>
<text text-anchor="middle" x="65" y="-85.2" font-family="Courier,monospace" font-size="11.00">CHttpGet</text>
</g>
<!-- \\CWhitelist -->
<g id="node5" class="node"><title>\\CWhitelist</title>
<polygon fill="none" stroke="black" points="107,-52 23,-52 23,-16 107,-16 107,-52"/>
<text text-anchor="middle" x="65" y="-31.2" font-family="Courier,monospace" font-size="11.00">CWhitelist</text>
</g>
</g>
</svg>
