<?xml version="1.0" encoding="UTF-8" standalone="no"?>
<!-- Created with Inkscape (http://www.inkscape.org/) -->

<svg
   xmlns:dc="http://purl.org/dc/elements/1.1/"
   xmlns:cc="http://creativecommons.org/ns#"
   xmlns:rdf="http://www.w3.org/1999/02/22-rdf-syntax-ns#"
   xmlns:svg="http://www.w3.org/2000/svg"
   xmlns="http://www.w3.org/2000/svg"
   xmlns:sodipodi="http://sodipodi.sourceforge.net/DTD/sodipodi-0.dtd"
   xmlns:inkscape="http://www.inkscape.org/namespaces/inkscape"
   width="210mm"
   height="297mm"
   viewBox="0 0 744.09448819 1052.3622047"
   id="svg2"
   version="1.1"
   inkscape:version="0.91 r13725"
   sodipodi:docname="drawing.svg">
  <defs
     id="defs4" />
  <sodipodi:namedview
     id="base"
     pagecolor="#ffffff"
     bordercolor="#666666"
     borderopacity="1.0"
     inkscape:pageopacity="0.0"
     inkscape:pageshadow="2"
     inkscape:zoom="2"
     inkscape:cx="76.428572"
     inkscape:cy="-22.526694"
     inkscape:document-units="px"
     inkscape:current-layer="layer1"
     showgrid="false"
     inkscape:window-width="1920"
     inkscape:window-height="1063"
     inkscape:window-x="0"
     inkscape:window-y="0"
     inkscape:window-maximized="1" />
  <metadata
     id="metadata7">
    <rdf:RDF>
      <cc:Work
         rdf:about="">
        <dc:format>image/svg+xml</dc:format>
        <dc:type
           rdf:resource="http://purl.org/dc/dcmitype/StillImage" />
        <dc:title></dc:title>
      </cc:Work>
    </rdf:RDF>
  </metadata>
  <g
     inkscape:label="Layer 1"
     inkscape:groupmode="layer"
     id="layer1">
    <rect
       style="fill:#e6e6e6;fill-opacity:1;stroke:none;stroke-opacity:1"
       id="rect4146"
       width="100"
       height="100"
       x="-7.4924429e-08"
       y="952.36218" />
    <path
       style="fill:#009600;fill-opacity:1;stroke:none;stroke-opacity:1"
       d="m 0,952.3622 0,20 20,0 0,-20 -20,0 z"
       id="rect4136"
       inkscape:connector-curvature="0" />
    <path
       inkscape:connector-curvature="0"
       id="path4140"
       d="m 166,948.8622 0,10 10,0 0,-10 -10,0 z"
       style="fill:#009600;fill-opacity:1;stroke:none;stroke-opacity:1" />
    <path
       style="fill:#009600;fill-opacity:1;stroke:none;stroke-opacity:1"
       d="m 185.5,949.3622 0,10 10,0 0,-10 -10,0 z"
       id="path4142"
       inkscape:connector-curvature="0" />
    <path
       inkscape:connector-curvature="0"
       id="path4144"
       d="m 201.5,949.8622 0,10 10,0 0,-10 -10,0 z"
       style="fill:#009600;fill-opacity:1;stroke:none;stroke-opacity:1" />
    <path
       inkscape:connector-curvature="0"
       id="path4148"
       d="m 40,952.3622 0,20 20,0 0,-20 -20,0 z"
       style="fill:#ffff00;fill-opacity:1;stroke:none;stroke-opacity:1" />
    <path
       style="fill:#ff0000;fill-opacity:1;stroke:none;stroke-opacity:1"
       d="m 80,952.3622 0,20 20,0 0,-20 -20,0 z"
       id="path4150"
       inkscape:connector-curvature="0" />
    <path
       inkscape:connector-curvature="0"
       id="path4152"
       d="m 20,972.3622 0,20 20,0 0,-20 -20,0 z"
       style="fill:#00ffff;fill-opacity:1;stroke:none;stroke-opacity:1" />
    <path
       style="fill:#000080;fill-opacity:1;stroke:none;stroke-opacity:1"
       d="m 60,972.3622 0,20 20,0 0,-20 -20,0 z"
       id="path4154"
       inkscape:connector-curvature="0" />
    <path
       inkscape:connector-curvature="0"
       id="path4156"
       d="m 0,992.3622 0,20 20,0 0,-20 -20,0 z"
       style="fill:#009600;fill-opacity:1;stroke:none;stroke-opacity:1" />
    <path
       style="fill:#ffff00;fill-opacity:1;stroke:none;stroke-opacity:1"
       d="m 40,992.3622 0,20 20,0 0,-20 -20,0 z"
       id="path4158"
       inkscape:connector-curvature="0" />
    <path
       inkscape:connector-curvature="0"
       id="path4160"
       d="m 80,992.3622 0,20 20,0 0,-20 -20,0 z"
       style="fill:#ff0000;fill-opacity:1;stroke:none;stroke-opacity:1" />
    <path
       style="fill:#00ffff;fill-opacity:1;stroke:none;stroke-opacity:1"
       d="m 20,1012.3622 0,20 20,0 0,-20 -20,0 z"
       id="path4162"
       inkscape:connector-curvature="0" />
    <path
       inkscape:connector-curvature="0"
       id="path4164"
       d="m 60,1012.3622 0,20 20,0 0,-20 -20,0 z"
       style="fill:#000080;fill-opacity:1;stroke:none;stroke-opacity:1" />
    <path
       inkscape:connector-curvature="0"
       id="path4166"
       d="m 0,1032.3622 0,20 20,0 0,-20 -20,0 z"
       style="fill:#009600;fill-opacity:1;stroke:none;stroke-opacity:1" />
    <path
       style="fill:#ffff00;fill-opacity:1;stroke:none;stroke-opacity:1"
       d="m 40,1032.3622 0,20 20,0 0,-20 -20,0 z"
       id="path4168"
       inkscape:connector-curvature="0" />
    <path
       inkscape:connector-curvature="0"
       id="path4170"
       d="m 80,1032.3622 0,20 20,0 0,-20 -20,0 z"
       style="fill:#ff0000;fill-opacity:1;stroke:none;stroke-opacity:1" />
  </g>
</svg>
